<svg width="165" height="140" viewBox="0 0 165 140" fill="none" xmlns="http://www.w3.org/2000/svg">
<circle cx="83.566" cy="73.566" r="65.566" fill="black"/>
<circle cx="30.1604" cy="30.1604" r="30.1604" fill="black"/>
<circle cx="141.185" cy="108.84" r="23.1667" fill="black"/>
<circle cx="26.2264" cy="100.534" r="14.8616" fill="black"/>
<path fill-rule="evenodd" clip-rule="evenodd" d="M107.333 69.0495C107.333 69.9682 106.594 70.7129 105.682 70.7129L105.661 70.6713C105.224 70.6713 104.804 70.496 104.494 70.1841C104.184 69.8722 104.01 69.4491 104.01 69.0079V65.6396C103.954 59.9789 99.4128 55.4039 93.7936 55.3475H74.2064C68.5871 55.4039 64.0456 59.9789 63.9896 65.6396V80.3604C64.0456 86.0211 68.5871 90.5961 74.2064 90.6525H93.7936C99.4128 90.5961 103.954 86.0211 104.01 80.3604C104.105 79.5079 104.82 78.8631 105.672 78.8631C106.523 78.8631 107.239 79.5079 107.333 80.3604C107.311 87.8839 101.262 93.9772 93.7936 94H74.2064C66.7333 93.9885 60.678 87.8886 60.6666 80.3604V65.6396C60.6666 58.1067 66.7286 52 74.2064 52H93.7936C101.262 52.0228 107.311 58.1161 107.333 65.6396V69.0495ZM85.7234 72.6673L95.3209 64.9327H95.3416C96.0562 64.3604 97.0944 64.4715 97.6739 65.1822C97.9499 65.5287 98.0768 65.972 98.0264 66.4133C97.976 66.8547 97.7524 67.2574 97.4055 67.5317L87.808 75.2871C85.3676 77.2654 81.8892 77.2654 79.4489 75.2871L69.8307 67.5317C69.1252 66.948 69.0149 65.9021 69.583 65.1822C69.8546 64.8371 70.2523 64.6164 70.687 64.5695C71.1216 64.5226 71.5567 64.6534 71.8947 64.9327L81.5954 72.6673C82.8072 73.6251 84.5116 73.6251 85.7234 72.6673Z" fill="white"/>
</svg>
