<svg width="165" height="139" viewBox="0 0 165 139" fill="none" xmlns="http://www.w3.org/2000/svg">
<circle cx="83.9244" cy="73.434" r="65.566" fill="black"/>
<path d="M101.332 43.6172C99.3022 42.4836 96.3604 43.0371 94.8659 45.6257L77.9924 74.8515C77.445 75.7995 76.512 76.5471 75.7686 77.0472C74.9437 75.5253 73.8235 74.1416 72.2188 73.2152C67.5919 70.5438 61.6421 72.139 58.9713 76.7648C56.5194 81.0116 57.7705 86.2754 61.5539 89.1922C59.8256 93.737 60.8146 99.2766 64.736 101.914C66.3998 103.033 68.1181 103.384 69.6248 103.117C71.1315 102.85 72.3832 102.003 73.2654 100.931C74.1475 99.859 74.6907 98.5535 74.7567 97.2216C74.8227 95.8897 74.3517 94.4789 73.2081 93.5449C71.504 92.1528 69.394 92.3237 68.0907 93.303C66.7874 94.2824 66.0261 96.0703 66.8328 97.6628C66.9706 97.9348 67.2107 98.1408 67.5005 98.2357C67.7902 98.3306 68.1057 98.3065 68.3777 98.1687C68.6496 98.0309 68.8557 97.7907 68.9506 97.501C69.0455 97.2113 69.0214 96.8958 68.8836 96.6238C68.694 96.2495 68.8902 95.5769 69.4702 95.141C70.0502 94.7052 70.7495 94.5044 71.7532 95.3243C72.2882 95.7613 72.5003 96.3439 72.4625 97.107C72.4247 97.8702 72.0751 98.7613 71.4924 99.4695C70.9096 100.178 70.1216 100.695 69.2238 100.854C68.3259 101.014 67.2764 100.855 66.0175 100.008C63.0663 98.0237 62.1317 93.0398 63.8697 89.3322C63.9886 89.0783 64.0106 88.7898 63.9316 88.5208C63.8526 88.2518 63.6779 88.0211 63.4406 87.8719C60.0759 85.7612 58.9574 81.3843 60.9612 77.9136C63.011 74.3632 67.5185 73.1546 71.0699 75.205C72.6321 76.1069 73.7309 77.4808 74.3086 79.0465C74.3614 79.1891 74.442 79.3198 74.5457 79.431C74.6494 79.5423 74.7741 79.6318 74.9127 79.6944C75.0512 79.7571 75.2008 79.7916 75.3528 79.796C75.5048 79.8004 75.6562 79.7745 75.7982 79.72C77.1047 79.2172 78.8617 77.941 79.9822 76.0003L96.8557 46.7745C97.8134 45.1157 99.1947 45.0556 100.212 45.6239C101.229 46.1921 101.947 47.3543 100.84 49.4454C100.701 49.7084 100.669 50.015 100.752 50.3008C100.834 50.5866 101.024 50.8293 101.282 50.9778C103.544 52.2838 104.828 53.0225 106.619 54.0567C107.235 54.4123 107.465 54.7959 107.557 55.1785C107.649 55.5612 107.58 55.9838 107.373 56.3447C107.167 56.7056 106.838 56.9783 106.466 57.0904C106.094 57.2025 105.658 57.1992 105.053 56.8498L102.074 55.1299C101.014 54.5179 99.8346 54.4339 98.8657 54.7725C97.8968 55.111 97.142 55.8105 96.6593 56.6465C96.1766 57.4826 95.9494 58.4841 96.1406 59.4925C96.3319 60.5009 96.9932 61.4823 98.0533 62.0944L100.904 63.7402C101.871 64.2987 101.906 65.2491 101.528 66.0124C101.339 66.394 101.05 66.6587 100.734 66.767C100.419 66.8752 100.029 66.8906 99.4006 66.5281L93.9077 63.3645C93.6439 63.2129 93.3307 63.1721 93.0368 63.2512C92.743 63.3302 92.4925 63.5226 92.3403 63.7861L90.9828 66.1374L84.1268 78.0123C82.9135 80.1138 82.9804 82.1275 83.0054 83.3966C83.0086 83.5568 83.0453 83.7145 83.113 83.8597C83.1808 84.0049 83.2781 84.1343 83.3988 84.2396C83.5196 84.3449 83.661 84.4238 83.814 84.4713C83.967 84.5187 84.1283 84.5336 84.2874 84.515C85.8116 84.339 87.3955 84.6306 88.8308 85.4593C92.3813 87.5091 93.5899 92.0166 91.5395 95.568C89.5711 98.9773 85.3363 100.212 81.862 98.4945C81.6152 98.3727 81.333 98.3435 81.0665 98.4122C80.8001 98.4809 80.5671 98.6429 80.41 98.8688C78.9161 101.017 76.6373 102.347 74.1918 102.697C73.89 102.74 73.6176 102.901 73.4347 103.145C73.2518 103.389 73.1733 103.696 73.2165 103.998C73.2597 104.3 73.4211 104.572 73.6651 104.755C73.9091 104.938 74.2158 105.016 74.5176 104.973C77.2925 104.576 79.8063 103.043 81.6595 100.779C86.037 102.475 91.1123 100.903 93.5293 96.7168C96.2006 92.09 94.6055 86.1401 89.9797 83.4694C88.5161 82.6244 86.9205 82.3196 85.3379 82.2871C85.3596 81.3045 85.4643 80.2911 86.1166 79.1612L92.9726 67.2862L93.7557 65.9299L98.2518 68.5179C99.3376 69.1448 100.511 69.2718 101.481 68.9389C102.45 68.606 103.168 67.8775 103.586 67.0326C104.424 65.343 104.071 62.9157 102.053 61.7504L99.2021 60.1045C98.6554 59.7889 98.4727 59.4513 98.3991 59.0631C98.3255 58.6749 98.4138 58.203 98.6491 57.7954C98.8844 57.3878 99.2501 57.0734 99.6231 56.9431C99.9961 56.8127 100.379 56.8041 100.925 57.1198L103.904 58.8396C104.98 59.4604 106.146 59.586 107.129 59.2896C108.112 58.9931 108.891 58.318 109.368 57.4858C109.844 56.6535 110.033 55.64 109.791 54.6391C109.549 53.6382 108.849 52.6911 107.768 52.0668C106.24 51.1849 104.928 50.4291 103.22 49.4435C104.022 46.9303 103.107 44.6087 101.332 43.6172Z" fill="white"/>
<circle cx="30.1604" cy="30.1604" r="30.1604" fill="black"/>
<circle cx="141.185" cy="108.84" r="23.1667" fill="black"/>
<circle cx="26.2264" cy="100.534" r="14.8616" fill="black"/>
</svg>
