<svg width="54" height="49" viewBox="0 0 54 49" fill="none" xmlns="http://www.w3.org/2000/svg">
<path d="M23.7502 22.3333C24.9468 22.3333 25.9168 21.3633 25.9168 20.1667C25.9168 18.97 24.9468 18 23.7502 18C22.5535 18 21.5835 18.97 21.5835 20.1667C21.5835 21.3633 22.5535 22.3333 23.7502 22.3333Z" stroke="black" stroke-width="2" stroke-linecap="round" stroke-linejoin="round"/>
<path d="M28.0832 13.6667H23.7498C18.3332 13.6667 16.1665 15.8334 16.1665 21.2501V27.7501C16.1665 33.1667 18.3332 35.3334 23.7498 35.3334H30.2498C35.6665 35.3334 37.8332 33.1667 37.8332 27.7501V22.3334" stroke="black" stroke-width="2" stroke-linecap="round" stroke-linejoin="round"/>
<path d="M31.0625 16.9167H37.0208" stroke="black" stroke-width="2" stroke-linecap="round"/>
<path d="M34.0415 19.8958V13.9375" stroke="black" stroke-width="2" stroke-linecap="round"/>
<path d="M16.8926 32.0292L22.2334 28.4434C23.0892 27.8692 24.3242 27.9342 25.0934 28.595L25.4509 28.9092C26.2959 29.635 27.6609 29.635 28.5059 28.9092L33.0126 25.0417C33.8576 24.3159 35.2226 24.3159 36.0676 25.0417L37.8334 26.5584" stroke="black" stroke-width="2" stroke-linecap="round" stroke-linejoin="round"/>
</svg>
