<svg width="32" height="32" viewBox="0 0 32 32" fill="none" xmlns="http://www.w3.org/2000/svg">
<circle cx="16" cy="16" r="16" fill="white"/>
<path d="M18.693 9.28478C19.1617 9.4713 19.493 9.80751 19.7901 10.3004L19.888 10.4705L20.2511 11.1668L20.263 11.1862L20.2739 11.2032L20.3047 11.2453C20.4702 11.4256 20.747 11.5345 20.9298 11.5345C22.6037 11.5345 23.9709 12.8491 24.0547 14.5018L24.0588 14.6627V19.3158C24.0588 21.4612 22.3645 23.212 20.2413 23.3027L20.0682 23.3064H11.9906C9.84463 23.3064 8.09432 21.6123 8.00369 19.4889L8 19.3158V14.6627C8 12.9353 9.40111 11.5345 11.1291 11.5345C11.3111 11.5345 11.5884 11.4254 11.7541 11.2453L11.7598 11.2386L11.767 11.2292L11.8082 11.1659L12.1703 10.4707C12.4931 9.88418 12.8442 9.49207 13.3652 9.2847C14.3199 8.90509 17.7391 8.90509 18.693 9.28478ZM13.8104 10.4038C13.6326 10.4746 13.4717 10.6383 13.2999 10.9222L13.2256 11.0514L12.9165 11.6488L12.8405 11.7865C12.777 11.8921 12.7135 11.9812 12.641 12.0602C12.2713 12.4621 11.7405 12.6942 11.2686 12.733L11.1291 12.7389L10.9973 12.7433C10.0394 12.8081 9.27363 13.5737 9.20885 14.5311L9.20441 14.6627V19.3158C9.20441 20.8031 10.3701 22.0185 11.8377 22.0979L11.9906 22.102H20.0682C21.5552 22.102 22.7709 20.9359 22.8503 19.4686L22.8544 19.3158V14.6627C22.8544 13.6448 22.0629 12.811 21.0615 12.7433L20.9298 12.7389L20.79 12.733C20.3174 12.6942 19.7866 12.462 19.4174 12.0597C19.3458 11.9817 19.2826 11.8932 19.2195 11.7885L19.2044 11.7626L19.1863 11.7303L19.0931 11.5555L18.833 11.0516C18.6574 10.7327 18.4966 10.5379 18.3229 10.4399L18.2476 10.4038L18.1518 10.372C17.3255 10.1384 14.4512 10.149 13.8104 10.4038ZM16.0292 13.9776C17.7717 13.9776 19.1839 15.3898 19.1839 17.1323C19.1839 18.8749 17.7717 20.2871 16.0292 20.2871C14.2866 20.2871 12.8744 18.8749 12.8744 17.1323C12.8744 15.3898 14.2866 13.9776 16.0292 13.9776ZM16.0292 15.182C14.9518 15.182 14.0788 16.055 14.0788 17.1323C14.0788 18.2097 14.9518 19.0827 16.0292 19.0827C17.1065 19.0827 17.9795 18.2097 17.9795 17.1323C17.9795 16.055 17.1065 15.182 16.0292 15.182ZM20.449 13.4163C20.8925 13.4163 21.252 13.7758 21.252 14.2193C21.252 14.6311 20.942 14.9704 20.5427 15.0168L20.449 15.0222C19.9984 15.0222 19.6389 14.6627 19.6389 14.2193C19.6389 13.8075 19.9488 13.4681 20.3482 13.4217L20.449 13.4163Z" fill="black"/>
</svg>
