<svg width="104" height="76" viewBox="0 0 104 76" fill="none" xmlns="http://www.w3.org/2000/svg">
<g filter="url(#filter0_d_2292_1164)">
<rect x="27" y="17" width="50" height="50" rx="25" fill="black"/>
</g>
<path d="M60 43.3333H53.3333V50C53.3333 50.7333 52.7333 51.3333 52 51.3333C51.2667 51.3333 50.6667 50.7333 50.6667 50V43.3333H44C43.2667 43.3333 42.6667 42.7333 42.6667 42C42.6667 41.2667 43.2667 40.6667 44 40.6667H50.6667V34C50.6667 33.2667 51.2667 32.6667 52 32.6667C52.7333 32.6667 53.3333 33.2667 53.3333 34V40.6667H60C60.7333 40.6667 61.3333 41.2667 61.3333 42C61.3333 42.7333 60.7333 43.3333 60 43.3333Z" fill="white"/>
<defs>
<filter id="filter0_d_2292_1164" x="0" y="0" width="104" height="104" filterUnits="userSpaceOnUse" color-interpolation-filters="sRGB">
<feFlood flood-opacity="0" result="BackgroundImageFix"/>
<feColorMatrix in="SourceAlpha" type="matrix" values="0 0 0 0 0 0 0 0 0 0 0 0 0 0 0 0 0 0 127 0" result="hardAlpha"/>
<feOffset dy="10"/>
<feGaussianBlur stdDeviation="13.5"/>
<feComposite in2="hardAlpha" operator="out"/>
<feColorMatrix type="matrix" values="0 0 0 0 0 0 0 0 0 0 0 0 0 0 0 0 0 0 0.15 0"/>
<feBlend mode="normal" in2="BackgroundImageFix" result="effect1_dropShadow_2292_1164"/>
<feBlend mode="normal" in="SourceGraphic" in2="effect1_dropShadow_2292_1164" result="shape"/>
</filter>
</defs>
</svg>
