<svg width="14" height="15" viewBox="0 0 14 15" fill="none" xmlns="http://www.w3.org/2000/svg">
<path d="M3.36209 8.27588L1.03448 13.9655L2.84483 13.4483L3.6207 15L5.94827 9.56898L3.36209 8.27588Z" fill="#DE4C3C"/>
<path d="M9.05176 8.01721L6.46558 9.56895L8.79315 15L9.56902 13.4482L11.3794 13.9655L9.05176 8.01721Z" fill="#DE4C3C"/>
<path d="M3.3621 8.27588L2.50604 10.3681L2.55002 10.381L3.10346 12.0983L4.86725 11.7207L4.98104 11.8241L5.94828 9.56898L3.3621 8.27588Z" fill="#C74436"/>
<path d="M6.46558 9.56895L7.43281 11.8241L7.5466 11.7207L9.31039 12.0982L9.86384 10.381L9.96471 10.35L9.05176 8.01721L6.46558 9.56895Z" fill="#C74436"/>
<path d="M6.20689 0L7.54655 1.21034L9.31034 0.830186L9.86379 2.55L11.581 3.10345L11.2034 4.86724L12.4138 6.20689L11.2034 7.54655L11.581 9.31034L9.86379 9.86379L9.31034 11.581L7.54655 11.2034L6.20689 12.4138L4.86724 11.2034L3.10345 11.581L2.55 9.86379L0.830185 9.31034L1.21034 7.54655L0 6.20689L1.21034 4.86724L0.830185 3.10345L2.55 2.55L3.10345 0.830186L4.86724 1.21034L6.20689 0Z" fill="#FDB62F"/>
<path d="M12.6724 2.06901C12.5845 1.53832 12.1686 1.12245 11.6379 1.03453C12.1686 0.946614 12.5845 0.530745 12.6724 6.10352e-05C12.7603 0.530745 13.1762 0.946614 13.7069 1.03453C13.1762 1.12245 12.7603 1.53829 12.6724 2.06901Z" fill="#FDB62F"/>
<path d="M12.4137 6.20691L11.2034 4.86725L11.581 3.10346L10.2439 2.67157C8.79307 6.6776 5.34567 8.94312 2.64307 10.1509L3.10341 11.581L4.8672 11.2035L6.20686 12.4138L7.54651 11.2035L9.3103 11.581L9.86375 9.86381L11.581 9.31036L11.2034 7.54657L12.4137 6.20691Z" fill="#FFA83D"/>
<path d="M4.6552 5.68967C4.08391 5.68967 3.62073 5.22649 3.62073 4.6552C3.62073 4.08391 4.08391 3.62073 4.6552 3.62073C5.22649 3.62073 5.68967 4.08391 5.68967 4.6552C5.68967 5.22649 5.22649 5.68967 4.6552 5.68967ZM4.6552 4.13793C4.36944 4.13793 4.13796 4.36941 4.13796 4.65517C4.13796 4.94093 4.36944 5.17241 4.6552 5.17241C4.94096 5.17241 5.17244 4.94093 5.17244 4.65517C5.17244 4.36941 4.94096 4.13793 4.6552 4.13793Z" fill="black"/>
<path d="M8.01726 9.05179C7.44597 9.05179 6.98279 8.58861 6.98279 8.01732C6.98279 7.44603 7.44597 6.98285 8.01726 6.98285C8.58855 6.98285 9.05173 7.44603 9.05173 8.01732C9.05173 8.58858 8.58855 9.05179 8.01726 9.05179ZM8.01726 7.50006C7.7315 7.50006 7.50002 7.73153 7.50002 8.01729C7.50002 8.30305 7.7315 8.53453 8.01726 8.53453C8.30302 8.53453 8.5345 8.30305 8.5345 8.01729C8.5345 7.73153 8.30305 7.50006 8.01726 7.50006Z" fill="black"/>
<path d="M4.57834 8.20065L8.19916 4.57983L7.83342 4.2141L4.21261 7.83491L4.57834 8.20065Z" fill="black"/>
</svg>
