<svg width="30" height="30" viewBox="0 0 30 30" fill="none" xmlns="http://www.w3.org/2000/svg">
<path fill-rule="evenodd" clip-rule="evenodd" d="M12.8049 21.324C17.5099 21.324 21.324 17.5099 21.324 12.8049C21.324 8.09987 17.5099 4.28572 12.8049 4.28572C8.09987 4.28572 4.28571 8.09987 4.28571 12.8049C4.28571 17.5099 8.09987 21.324 12.8049 21.324ZM12.8049 23.4669C18.6933 23.4669 23.4669 18.6933 23.4669 12.8049C23.4669 6.91642 18.6933 2.14286 12.8049 2.14286C6.91641 2.14286 2.14286 6.91642 2.14286 12.8049C2.14286 18.6933 6.91641 23.4669 12.8049 23.4669Z" fill="black"/>
<path fill-rule="evenodd" clip-rule="evenodd" d="M12.8049 8.6204C10.4939 8.6204 8.62041 10.4939 8.62041 12.8049C8.62041 13.3966 8.14071 13.8763 7.54899 13.8763C6.95726 13.8763 6.47756 13.3966 6.47756 12.8049C6.47756 9.3104 9.31039 6.47754 12.8049 6.47754C13.3966 6.47754 13.8763 6.95724 13.8763 7.54897C13.8763 8.1407 13.3966 8.6204 12.8049 8.6204ZM18.8135 18.8135C19.2319 18.3951 19.9103 18.3951 20.3287 18.8135L27.5432 26.028C27.9617 26.4465 27.9617 27.1249 27.5432 27.5434C27.1249 27.9617 26.4465 27.9617 26.028 27.5434L18.8135 20.3287C18.3951 19.9103 18.3951 19.2319 18.8135 18.8135Z" fill="black"/>
</svg>
