<svg width="133" height="20" viewBox="0 0 133 20" fill="none" xmlns="http://www.w3.org/2000/svg">
<path d="M10.5901 6.26918C10.5309 5.61813 10.2675 5.1121 9.79994 4.75107C9.33829 4.38411 8.67837 4.20064 7.82018 4.20064C7.252 4.20064 6.77851 4.27462 6.39972 4.42258C6.02094 4.57055 5.73685 4.77474 5.54745 5.03516C5.35806 5.28965 5.2604 5.58262 5.25448 5.91406C5.24265 6.18632 5.29591 6.42602 5.41428 6.63317C5.53857 6.84032 5.71613 7.02379 5.94696 7.18359C6.1837 7.33748 6.46779 7.4736 6.79923 7.59197C7.13067 7.71035 7.50354 7.81392 7.91784 7.9027L9.48034 8.25781C10.38 8.45312 11.173 8.71354 11.8596 9.03906C12.5521 9.36458 13.1321 9.75225 13.5997 10.2021C14.0731 10.6519 14.4312 11.1697 14.6739 11.7557C14.9165 12.3416 15.0408 12.9986 15.0467 13.7266C15.0408 14.8748 14.7508 15.8602 14.1767 16.6829C13.6026 17.5056 12.777 18.1359 11.6998 18.5739C10.6285 19.0118 9.33533 19.2308 7.82018 19.2308C6.29911 19.2308 4.97335 19.003 3.84291 18.5472C2.71246 18.0915 1.83356 17.399 1.20619 16.4698C0.57882 15.5406 0.256259 14.3658 0.238503 12.9453H4.4466C4.48211 13.5312 4.63895 14.0195 4.91713 14.4102C5.1953 14.8008 5.57705 15.0967 6.06237 15.2979C6.55361 15.4992 7.12179 15.5998 7.76691 15.5998C8.35877 15.5998 8.86185 15.5199 9.27615 15.3601C9.69636 15.2003 10.0189 14.9783 10.2438 14.6942C10.4687 14.4102 10.5841 14.0846 10.5901 13.7177C10.5841 13.3744 10.4776 13.0814 10.2705 12.8388C10.0633 12.5902 9.74371 12.3771 9.31166 12.1996C8.88552 12.0161 8.34101 11.8474 7.67813 11.6935L5.77828 11.2496C4.20394 10.8886 2.964 10.3056 2.05846 9.50071C1.15292 8.68987 0.70311 7.59493 0.709029 6.21591C0.70311 5.09138 1.00496 4.10594 1.61457 3.25959C2.22418 2.41323 3.06758 1.75331 4.14475 1.27983C5.22193 0.806344 6.45003 0.569602 7.82906 0.569602C9.23767 0.569602 10.4599 0.809303 11.4956 1.28871C12.5373 1.76219 13.3452 2.42803 13.9193 3.28622C14.4934 4.14441 14.7863 5.13873 14.7982 6.26918H10.5901ZM14.2662 19V0.818181H18.6607V8.11577H25.8252V0.818181H30.2108V19H25.8252V11.6935H18.6607V19H14.2662ZM47.1282 9.90909C47.1282 11.9096 46.7435 13.6052 45.9741 14.9961C45.2047 16.387 44.163 17.4434 42.8491 18.1655C41.5411 18.8875 40.0733 19.2486 38.4457 19.2486C36.8122 19.2486 35.3414 18.8846 34.0334 18.1566C32.7254 17.4286 31.6867 16.3722 30.9173 14.9872C30.1538 13.5964 29.7721 11.9036 29.7721 9.90909C29.7721 7.90862 30.1538 6.21295 30.9173 4.82209C31.6867 3.43123 32.7254 2.37476 34.0334 1.6527C35.3414 0.930634 36.8122 0.569602 38.4457 0.569602C40.0733 0.569602 41.5411 0.930634 42.8491 1.6527C44.163 2.37476 45.2047 3.43123 45.9741 4.82209C46.7435 6.21295 47.1282 7.90862 47.1282 9.90909ZM42.6361 9.90909C42.6361 8.72538 42.4674 7.72514 42.13 6.90838C41.7986 6.09162 41.3192 5.47313 40.6918 5.05291C40.0704 4.63269 39.3217 4.42258 38.4457 4.42258C37.5757 4.42258 36.827 4.63269 36.1996 5.05291C35.5723 5.47313 35.0899 6.09162 34.7525 6.90838C34.4211 7.72514 34.2554 8.72538 34.2554 9.90909C34.2554 11.0928 34.4211 12.093 34.7525 12.9098C35.0899 13.7266 35.5723 14.3451 36.1996 14.7653C36.827 15.1855 37.5757 15.3956 38.4457 15.3956C39.3217 15.3956 40.0704 15.1855 40.6918 14.7653C41.3192 14.3451 41.7986 13.7266 42.13 12.9098C42.4674 12.093 42.6361 11.0928 42.6361 9.90909ZM46.6939 19V0.818181H54.2046C55.5659 0.818181 56.7407 1.08452 57.7291 1.61719C58.7234 2.14394 59.4899 2.8808 60.0285 3.82777C60.567 4.76882 60.8363 5.86375 60.8363 7.11257C60.8363 8.36731 60.5611 9.4652 60.0107 10.4062C59.4662 11.3414 58.6879 12.0664 57.6758 12.5813C56.6638 13.0962 55.4623 13.3537 54.0714 13.3537H49.4372V9.89134H53.2547C53.9175 9.89134 54.4709 9.77592 54.9148 9.5451C55.3646 9.31428 55.7049 8.99171 55.9358 8.57741C56.1666 8.1572 56.282 7.66892 56.282 7.11257C56.282 6.55031 56.1666 6.06498 55.9358 5.6566C55.7049 5.24231 55.3646 4.9227 54.9148 4.6978C54.465 4.47289 53.9116 4.36044 53.2547 4.36044H51.0885V19H46.6939ZM69.8303 6.26918C69.7711 5.61813 69.5077 5.1121 69.0402 4.75107C68.5785 4.38411 67.9186 4.20064 67.0604 4.20064C66.4922 4.20064 66.0187 4.27462 65.64 4.42258C65.2612 4.57055 64.9771 4.77474 64.7877 5.03516C64.5983 5.28965 64.5006 5.58262 64.4947 5.91406C64.4829 6.18632 64.5361 6.42602 64.6545 6.63317C64.7788 6.84032 64.9564 7.02379 65.1872 7.18359C65.4239 7.33748 65.708 7.4736 66.0395 7.59197C66.3709 7.71035 66.7438 7.81392 67.1581 7.9027L68.7206 8.25781C69.6202 8.45312 70.4133 8.71354 71.0998 9.03906C71.7923 9.36458 72.3723 9.75225 72.8399 10.2021C73.3134 10.6519 73.6714 11.1697 73.9141 11.7557C74.1568 12.3416 74.2811 12.9986 74.287 13.7266C74.2811 14.8748 73.991 15.8602 73.4169 16.6829C72.8428 17.5056 72.0172 18.1359 70.94 18.5739C69.8688 19.0118 68.5756 19.2308 67.0604 19.2308C65.5393 19.2308 64.2136 19.003 63.0831 18.5472C61.9527 18.0915 61.0738 17.399 60.4464 16.4698C59.8191 15.5406 59.4965 14.3658 59.4787 12.9453H63.6868C63.7223 13.5312 63.8792 14.0195 64.1574 14.4102C64.4355 14.8008 64.8173 15.0967 65.3026 15.2979C65.7938 15.4992 66.362 15.5998 67.0071 15.5998C67.599 15.5998 68.1021 15.5199 68.5164 15.3601C68.9366 15.2003 69.2592 14.9783 69.4841 14.6942C69.709 14.4102 69.8244 14.0846 69.8303 13.7177C69.8244 13.3744 69.7178 13.0814 69.5107 12.8388C69.3035 12.5902 68.9839 12.3771 68.5519 12.1996C68.1258 12.0161 67.5812 11.8474 66.9184 11.6935L65.0185 11.2496C63.4442 10.8886 62.2042 10.3056 61.2987 9.50071C60.3932 8.68987 59.9433 7.59493 59.9493 6.21591C59.9433 5.09138 60.2452 4.10594 60.8548 3.25959C61.4644 2.41323 62.3078 1.75331 63.385 1.27983C64.4622 0.806344 65.6903 0.569602 67.0693 0.569602C68.4779 0.569602 69.7001 0.809303 70.7358 1.28871C71.7775 1.76219 72.5854 2.42803 73.1595 3.28622C73.7336 4.14441 74.0266 5.13873 74.0384 6.26918H69.8303ZM90.0103 7.40554H85.5714C85.5122 6.94981 85.3909 6.53847 85.2074 6.17152C85.024 5.80457 84.7813 5.49089 84.4794 5.23047C84.1776 4.97005 83.8195 4.77178 83.4052 4.63565C82.9968 4.49361 82.5441 4.42258 82.0469 4.42258C81.1651 4.42258 80.4045 4.63861 79.7653 5.07067C79.132 5.50272 78.6437 6.12713 78.3005 6.94389C77.9631 7.76065 77.7944 8.74905 77.7944 9.90909C77.7944 11.1165 77.9661 12.1286 78.3093 12.9453C78.6585 13.7562 79.1468 14.3687 79.7742 14.783C80.4075 15.1914 81.1562 15.3956 82.0203 15.3956C82.5056 15.3956 82.9465 15.3335 83.3431 15.2092C83.7455 15.0849 84.0977 14.9044 84.3995 14.6676C84.7073 14.425 84.9589 14.132 85.1542 13.7887C85.3554 13.4395 85.4945 13.0459 85.5714 12.608L90.0103 12.6346C89.9334 13.4395 89.6996 14.2326 89.309 15.0138C88.9243 15.7951 88.3946 16.5083 87.7199 17.1534C87.0451 17.7926 86.2225 18.3016 85.2518 18.6804C84.2871 19.0592 83.1803 19.2486 81.9315 19.2486C80.2861 19.2486 78.8124 18.8875 77.5103 18.1655C76.2142 17.4375 75.1903 16.3781 74.4386 14.9872C73.687 13.5964 73.3111 11.9036 73.3111 9.90909C73.3111 7.90862 73.6929 6.21295 74.4564 4.82209C75.2199 3.43123 76.2526 2.37476 77.5547 1.6527C78.8568 0.930634 80.3157 0.569602 81.9315 0.569602C83.0324 0.569602 84.0504 0.723484 84.9855 1.03125C85.9206 1.3331 86.7433 1.77699 87.4535 2.36293C88.1638 2.94294 88.7408 3.65613 89.1847 4.50249C89.6286 5.34884 89.9038 6.31652 90.0103 7.40554ZM106.686 9.90909C106.686 11.9096 106.301 13.6052 105.532 14.9961C104.762 16.387 103.721 17.4434 102.407 18.1655C101.099 18.8875 99.6309 19.2486 98.0033 19.2486C96.3698 19.2486 94.899 18.8846 93.591 18.1566C92.283 17.4286 91.2443 16.3722 90.4749 14.9872C89.7114 13.5964 89.3297 11.9036 89.3297 9.90909C89.3297 7.90862 89.7114 6.21295 90.4749 4.82209C91.2443 3.43123 92.283 2.37476 93.591 1.6527C94.899 0.930634 96.3698 0.569602 98.0033 0.569602C99.6309 0.569602 101.099 0.930634 102.407 1.6527C103.721 2.37476 104.762 3.43123 105.532 4.82209C106.301 6.21295 106.686 7.90862 106.686 9.90909ZM102.194 9.90909C102.194 8.72538 102.025 7.72514 101.688 6.90838C101.356 6.09162 100.877 5.47313 100.249 5.05291C99.628 4.63269 98.8793 4.42258 98.0033 4.42258C97.1333 4.42258 96.3846 4.63269 95.7572 5.05291C95.1299 5.47313 94.6475 6.09162 94.3101 6.90838C93.9787 7.72514 93.813 8.72538 93.813 9.90909C93.813 11.0928 93.9787 12.093 94.3101 12.9098C94.6475 13.7266 95.1299 14.3451 95.7572 14.7653C96.3846 15.1855 97.1333 15.3956 98.0033 15.3956C98.8793 15.3956 99.628 15.1855 100.249 14.7653C100.877 14.3451 101.356 13.7266 101.688 12.9098C102.025 12.093 102.194 11.0928 102.194 9.90909ZM106.252 19V0.818181H113.762C115.123 0.818181 116.298 1.08452 117.287 1.61719C118.281 2.14394 119.047 2.8808 119.586 3.82777C120.125 4.76882 120.394 5.86375 120.394 7.11257C120.394 8.36731 120.119 9.4652 119.568 10.4062C119.024 11.3414 118.246 12.0664 117.233 12.5813C116.221 13.0962 115.02 13.3537 113.629 13.3537H108.995V9.89134H112.812C113.475 9.89134 114.029 9.77592 114.472 9.5451C114.922 9.31428 115.263 8.99171 115.493 8.57741C115.724 8.1572 115.84 7.66892 115.84 7.11257C115.84 6.55031 115.724 6.06498 115.493 5.6566C115.263 5.24231 114.922 4.9227 114.472 4.6978C114.023 4.47289 113.469 4.36044 112.812 4.36044H110.646V19H106.252ZM119.56 19V0.818181H132.238V4.38707H123.955V8.11577H131.59V11.6935H123.955V15.4311H132.238V19H119.56Z" fill="black"/>
</svg>
