<svg width="50" height="50" viewBox="0 0 32 32" fill="none" xmlns="http://www.w3.org/2000/svg">
<circle opacity="0.5" cx="16" cy="16" r="16" fill="black"/>
<path fill-rule="evenodd" clip-rule="evenodd" d="M15.9947 9.48955C17.3626 8.62477 19.1796 8.38586 20.7493 8.88892C24.1639 9.99008 25.2238 13.7125 24.2758 16.6745C22.8129 21.3264 16.5651 24.7965 16.3001 24.942C16.2059 24.9942 16.1016 25.0203 15.9973 25.0203C15.8929 25.0203 15.7895 24.995 15.6953 24.9437C15.432 24.7999 9.2296 21.3811 7.71792 16.6753C7.71707 16.6753 7.71707 16.6745 7.71707 16.6745C6.76817 13.7117 7.82475 9.9884 11.2359 8.88892C12.8376 8.37072 14.5832 8.59869 15.9947 9.48955ZM11.6229 10.0902C8.86282 10.9802 8.16965 13.9489 8.91919 16.29C10.0986 19.9594 14.7581 22.9264 15.9964 23.6608C17.2389 22.9189 21.9321 19.9191 23.0736 16.2934C23.8232 13.9497 23.1275 10.981 20.3632 10.0902C19.024 9.66032 17.4618 9.92194 16.3834 10.7564C16.1579 10.9297 15.845 10.9331 15.6179 10.7615C14.4755 9.90259 12.9831 9.65107 11.6229 10.0902ZM19.5556 11.7608C20.7022 12.1318 21.5056 13.1471 21.604 14.3475C21.6318 14.695 21.3735 14.9995 21.0261 15.0273C21.0084 15.0289 20.9916 15.0298 20.9739 15.0298C20.6484 15.0298 20.3725 14.7799 20.3455 14.4502C20.29 13.7587 19.8274 13.1749 19.1687 12.962C18.8364 12.8544 18.6547 12.4985 18.7615 12.1679C18.87 11.8365 19.2225 11.6565 19.5556 11.7608Z" fill="white"/>
</svg>
