<svg width="26" height="26" viewBox="0 0 26 26" fill="none" xmlns="http://www.w3.org/2000/svg">
<path fill-rule="evenodd" clip-rule="evenodd" d="M14.8601 16.5655C16.1644 16.5655 17.2261 17.6196 17.2261 18.9153V22.2476C17.2261 22.526 17.4493 22.7492 17.7353 22.7557H19.8001C21.4273 22.7557 22.75 21.4492 22.75 19.8437V10.3927C22.7424 9.84019 22.4792 9.32019 22.0274 8.97461L14.885 3.27844C13.9263 2.51902 12.5851 2.51902 11.6231 3.28061L4.52944 8.97244C4.06035 9.32886 3.7971 9.84886 3.79169 10.4111V19.8437C3.79169 21.4492 5.11444 22.7557 6.7416 22.7557H8.82594C9.11952 22.7557 9.35785 22.5228 9.35785 22.2368C9.35785 22.1739 9.36544 22.1111 9.37844 22.0515V18.9153C9.37844 17.6272 10.4336 16.5742 11.7282 16.5655H14.8601ZM19.8001 24.3807H17.7158C16.5219 24.3525 15.6011 23.4154 15.6011 22.2476V18.9153C15.6011 18.5155 15.2685 18.1905 14.8601 18.1905H11.7336C11.3339 18.1927 11.0034 18.5188 11.0034 18.9153V22.2368C11.0034 22.318 10.9926 22.396 10.9699 22.4697C10.8529 23.5422 9.93635 24.3807 8.82594 24.3807H6.7416C4.21852 24.3807 2.16669 22.3451 2.16669 19.8437V10.4035C2.17752 9.32669 2.67369 8.34086 3.5306 7.69194L10.6102 2.00986C12.1691 0.774857 14.3412 0.774857 15.8969 2.00769L23.0274 7.69519C23.8648 8.33327 24.3609 9.31694 24.375 10.3808V19.8437C24.375 22.3451 22.3232 24.3807 19.8001 24.3807Z" fill="white"/>
</svg>
