<svg width="21" height="21" viewBox="0 0 21 21" fill="none" xmlns="http://www.w3.org/2000/svg">
<circle cx="10.5" cy="10.5" r="10.5" fill="black" fill-opacity="0.6"/>
<path d="M10.5 11.333L7.58452 14.2485C7.47543 14.3576 7.3366 14.4121 7.16802 14.4121C6.99943 14.4121 6.8606 14.3576 6.75152 14.2485C6.64243 14.1394 6.58789 14.0006 6.58789 13.832C6.58789 13.6634 6.64243 13.5246 6.75152 13.4155L9.66702 10.5L6.75152 7.58452C6.64243 7.47543 6.58789 7.3366 6.58789 7.16802C6.58789 6.99943 6.64243 6.8606 6.75152 6.75152C6.8606 6.64243 6.99943 6.58789 7.16802 6.58789C7.3366 6.58789 7.47543 6.64243 7.58452 6.75152L10.5 9.66702L13.4155 6.75152C13.5246 6.64243 13.6634 6.58789 13.832 6.58789C14.0006 6.58789 14.1394 6.64243 14.2485 6.75152C14.3576 6.8606 14.4121 6.99943 14.4121 7.16802C14.4121 7.3366 14.3576 7.47543 14.2485 7.58452L11.333 10.5L14.2485 13.4155C14.3576 13.5246 14.4121 13.6634 14.4121 13.832C14.4121 14.0006 14.3576 14.1394 14.2485 14.2485C14.1394 14.3576 14.0006 14.4121 13.832 14.4121C13.6634 14.4121 13.5246 14.3576 13.4155 14.2485L10.5 11.333Z" fill="white"/>
</svg>
