<svg width="36" height="36" viewBox="0 0 36 36" fill="none" xmlns="http://www.w3.org/2000/svg">
<circle cx="18" cy="18" r="18" fill="black"/>
<path d="M16 24C16.5523 24 17 24.4477 17 25C17 25.5523 16.5523 26 16 26H10C9.44772 26 9 25.5523 9 25C9 24.4477 9.44772 24 10 24H16ZM25 17C25.5523 17 26 17.4477 26 18C26 18.5523 25.5523 19 25 19H11C10.4477 19 10 18.5523 10 18C10 17.4477 10.4477 17 11 17H25ZM26 10C26.5523 10 27 10.4477 27 11C27 11.5523 26.5523 12 26 12H20C19.4477 12 19 11.5523 19 11C19 10.4477 19.4477 10 20 10H26Z" fill="white"/>
</svg>
