<svg width="28" height="28" viewBox="0 0 28 28" fill="none" xmlns="http://www.w3.org/2000/svg">
<g opacity="0.45">
<path d="M21.0233 10.395V13.7667C21.0233 14.4784 21.3266 15.5634 21.6766 16.17L23.0183 18.3984C23.7883 19.6817 23.17 21.35 21.7583 21.8167C16.73 23.4967 11.305 23.4967 6.27665 21.8167C4.75998 21.3034 4.18831 19.775 5.01665 18.3984L6.35831 16.17C6.71998 15.5634 7.02331 14.4784 7.02331 13.7667V10.395C7.02331 6.53335 10.1616 3.39502 14.0233 3.39502C15.2864 3.39502 16.4741 3.73406 17.5 4.32562" stroke="black" stroke-width="1.5" stroke-miterlimit="10" stroke-linecap="round"/>
<path d="M16.1817 3.73331C15.82 3.62831 15.4467 3.54664 15.0617 3.49997C13.9417 3.35997 12.8683 3.44164 11.865 3.73331C12.2033 2.86997 13.0433 2.26331 14.0233 2.26331C15.0033 2.26331 15.8433 2.86997 16.1817 3.73331Z" stroke="black" stroke-width="1.5" stroke-miterlimit="10" stroke-linecap="round" stroke-linejoin="round"/>
<path d="M17.5233 22.2367C17.5233 24.1617 15.9483 25.7367 14.0233 25.7367C13.0666 25.7367 12.18 25.34 11.55 24.71C10.92 24.08 10.5233 23.1934 10.5233 22.2367" stroke="black" stroke-width="1.5" stroke-miterlimit="10"/>
</g>
<path d="M23 6.5C23 7.60457 22.1046 8.5 21 8.5C19.8954 8.5 19 7.60457 19 6.5C19 5.39543 19.8954 4.5 21 4.5C22.1046 4.5 23 5.39543 23 6.5Z" fill="black"/>
</svg>
