<svg width="22" height="22" viewBox="0 0 22 22" fill="none" xmlns="http://www.w3.org/2000/svg">
<path d="M11.0001 12.8332C12.0127 12.8332 12.8335 12.0124 12.8335 10.9998C12.8335 9.98732 12.0127 9.1665 11.0001 9.1665C9.98762 9.1665 9.16681 9.98732 9.16681 10.9998C9.16681 12.0124 9.98762 12.8332 11.0001 12.8332Z" fill="black"/>
<path d="M11.0001 6.41667C12.0127 6.41667 12.8335 5.59586 12.8335 4.58333C12.8335 3.57081 12.0127 2.75 11.0001 2.75C9.98762 2.75 9.16681 3.57081 9.16681 4.58333C9.16681 5.59586 9.98762 6.41667 11.0001 6.41667Z" fill="black"/>
<path d="M11.0001 19.2502C12.0127 19.2502 12.8335 18.4294 12.8335 17.4168C12.8335 16.4043 12.0127 15.5835 11.0001 15.5835C9.98762 15.5835 9.16681 16.4043 9.16681 17.4168C9.16681 18.4294 9.98762 19.2502 11.0001 19.2502Z" fill="black"/>
</svg>
