<svg width="64" height="64" viewBox="0 0 64 64" fill="none" xmlns="http://www.w3.org/2000/svg">
<g filter="url(#filter0_d_11_324)">
<circle cx="32" cy="28" r="18" fill="white"/>
<path d="M32 31C33.6569 31 35 29.6569 35 28C35 26.3431 33.6569 25 32 25C30.3431 25 29 26.3431 29 28C29 29.6569 30.3431 31 32 31Z" stroke="#292D32" stroke-width="1.5" stroke-miterlimit="10" stroke-linecap="round" stroke-linejoin="round"/>
<path d="M22 28.8799V27.1199C22 26.0799 22.85 25.2199 23.9 25.2199C25.71 25.2199 26.45 23.9399 25.54 22.3699C25.02 21.4699 25.33 20.2999 26.24 19.7799L27.97 18.7899C28.76 18.3199 29.78 18.5999 30.25 19.3899L30.36 19.5799C31.26 21.1499 32.74 21.1499 33.65 19.5799L33.76 19.3899C34.23 18.5999 35.25 18.3199 36.04 18.7899L37.77 19.7799C38.68 20.2999 38.99 21.4699 38.47 22.3699C37.56 23.9399 38.3 25.2199 40.11 25.2199C41.15 25.2199 42.01 26.0699 42.01 27.1199V28.8799C42.01 29.9199 41.16 30.7799 40.11 30.7799C38.3 30.7799 37.56 32.0599 38.47 33.6299C38.99 34.5399 38.68 35.6999 37.77 36.2199L36.04 37.2099C35.25 37.6799 34.23 37.3999 33.76 36.6099L33.65 36.4199C32.75 34.8499 31.27 34.8499 30.36 36.4199L30.25 36.6099C29.78 37.3999 28.76 37.6799 27.97 37.2099L26.24 36.2199C25.33 35.6999 25.02 34.5299 25.54 33.6299C26.45 32.0599 25.71 30.7799 23.9 30.7799C22.85 30.7799 22 29.9199 22 28.8799Z" stroke="#292D32" stroke-width="1.5" stroke-miterlimit="10" stroke-linecap="round" stroke-linejoin="round"/>
</g>
<defs>
<filter id="filter0_d_11_324" x="0" y="0" width="64" height="64" filterUnits="userSpaceOnUse" color-interpolation-filters="sRGB">
<feFlood flood-opacity="0" result="BackgroundImageFix"/>
<feColorMatrix in="SourceAlpha" type="matrix" values="0 0 0 0 0 0 0 0 0 0 0 0 0 0 0 0 0 0 127 0" result="hardAlpha"/>
<feOffset dy="4"/>
<feGaussianBlur stdDeviation="7"/>
<feComposite in2="hardAlpha" operator="out"/>
<feColorMatrix type="matrix" values="0 0 0 0 0 0 0 0 0 0 0 0 0 0 0 0 0 0 0.1 0"/>
<feBlend mode="normal" in2="BackgroundImageFix" result="effect1_dropShadow_11_324"/>
<feBlend mode="normal" in="SourceGraphic" in2="effect1_dropShadow_11_324" result="shape"/>
</filter>
</defs>
</svg>
