<svg width="60" height="63" viewBox="0 0 60 63" fill="none" xmlns="http://www.w3.org/2000/svg">
<g filter="url(#filter0_d_148_838)">
<circle cx="30" cy="26" r="26" fill="white"/>
</g>
<circle cx="30.0837" cy="26.0837" r="20.2746" stroke="#FF5E51" stroke-width="1.6183"/>
<path d="M32.5222 26.2721C32.4973 26.2475 32.4775 26.2181 32.4641 26.1858C32.4506 26.1535 32.4437 26.1188 32.4437 26.0838C32.4437 26.0487 32.4506 26.014 32.4641 25.9817C32.4775 25.9494 32.4973 25.92 32.5222 25.8954L37.7786 20.6416C37.9265 20.4937 38.0438 20.3181 38.1239 20.1248C38.2039 19.9316 38.2451 19.7244 38.2451 19.5152C38.2451 19.3061 38.2039 19.0989 38.1239 18.9057C38.0438 18.7124 37.9265 18.5368 37.7786 18.3889C37.6306 18.241 37.455 18.1236 37.2618 18.0436C37.0685 17.9635 36.8614 17.9223 36.6522 17.9223C36.2297 17.9223 35.8245 18.0901 35.5258 18.3889L30.2721 23.6426C30.2474 23.6675 30.2181 23.6872 30.1857 23.7007C30.1534 23.7142 30.1187 23.7211 30.0837 23.7211C30.0486 23.7211 30.014 23.7142 29.9816 23.7007C29.9493 23.6872 29.92 23.6675 29.8953 23.6426L24.6415 18.3889C24.3428 18.0901 23.9376 17.9223 23.5152 17.9223C23.0927 17.9223 22.6875 18.0901 22.3888 18.3889C22.0901 18.6876 21.9222 19.0928 21.9222 19.5152C21.9222 19.9377 22.0901 20.3429 22.3888 20.6416L27.6425 25.8954C27.6674 25.92 27.6872 25.9494 27.7006 25.9817C27.7141 26.014 27.721 26.0487 27.721 26.0838C27.721 26.1188 27.7141 26.1535 27.7006 26.1858C27.6872 26.2181 27.6674 26.2475 27.6425 26.2721L22.3888 31.5259C22.0901 31.8246 21.9222 32.2298 21.9222 32.6523C21.9222 33.0747 22.0901 33.4799 22.3888 33.7786C22.6875 34.0774 23.0927 34.2452 23.5152 34.2452C23.9376 34.2452 24.3428 34.0774 24.6415 33.7786L29.8953 28.5249C29.92 28.5 29.9493 28.4803 29.9816 28.4668C30.014 28.4533 30.0486 28.4464 30.0837 28.4464C30.1187 28.4464 30.1534 28.4533 30.1857 28.4668C30.2181 28.4803 30.2474 28.5 30.2721 28.5249L35.5258 33.7786C35.8245 34.0774 36.2297 34.2452 36.6522 34.2452C37.0747 34.2452 37.4798 34.0774 37.7786 33.7786C38.0773 33.4799 38.2451 33.0747 38.2451 32.6523C38.2451 32.2298 38.0773 31.8246 37.7786 31.5259L32.5222 26.2721Z" fill="#FF5E51"/>
<defs>
<filter id="filter0_d_148_838" x="0" y="0" width="60" height="63" filterUnits="userSpaceOnUse" color-interpolation-filters="sRGB">
<feFlood flood-opacity="0" result="BackgroundImageFix"/>
<feColorMatrix in="SourceAlpha" type="matrix" values="0 0 0 0 0 0 0 0 0 0 0 0 0 0 0 0 0 0 127 0" result="hardAlpha"/>
<feOffset dy="7"/>
<feGaussianBlur stdDeviation="2"/>
<feComposite in2="hardAlpha" operator="out"/>
<feColorMatrix type="matrix" values="0 0 0 0 0 0 0 0 0 0 0 0 0 0 0 0 0 0 0.25 0"/>
<feBlend mode="normal" in2="BackgroundImageFix" result="effect1_dropShadow_148_838"/>
<feBlend mode="normal" in="SourceGraphic" in2="effect1_dropShadow_148_838" result="shape"/>
</filter>
</defs>
</svg>
