<svg width="18" height="19" viewBox="0 0 18 19" fill="none" xmlns="http://www.w3.org/2000/svg">
<path d="M15.75 5.1811C13.2525 4.93879 10.74 4.81396 8.235 4.81396C6.75 4.81396 5.265 4.88739 3.78 5.03424L2.25 5.1811" stroke="#FF7C7C" stroke-width="1.5" stroke-linecap="round" stroke-linejoin="round"/>
<path d="M6.375 4.4395L6.54 3.47761C6.66 2.78006 6.75 2.25873 8.0175 2.25873H9.9825C11.25 2.25873 11.3475 2.80943 11.46 3.48495L11.625 4.4395" stroke="#FF7C7C" stroke-width="1.5" stroke-linecap="round" stroke-linejoin="round"/>
<path d="M14.1375 7.5014L13.65 14.8955C13.5675 16.0483 13.5 16.9441 11.4075 16.9441H6.59255C4.50005 16.9441 4.43255 16.0483 4.35005 14.8955L3.86255 7.5014" stroke="#FF7C7C" stroke-width="1.5" stroke-linecap="round" stroke-linejoin="round"/>
<path d="M7.7475 12.9056H10.245" stroke="#FF7C7C" stroke-width="1.5" stroke-linecap="round" stroke-linejoin="round"/>
<path d="M7.125 9.96851H10.875" stroke="#FF7C7C" stroke-width="1.5" stroke-linecap="round" stroke-linejoin="round"/>
</svg>
