<svg width="30" height="30" viewBox="0 0 30 30" fill="none" xmlns="http://www.w3.org/2000/svg">
<path fill-rule="evenodd" clip-rule="evenodd" d="M15.2934 5.04875C17.3259 3.76375 20.0259 3.40875 22.3584 4.15625C27.4321 5.7925 29.0071 11.3238 27.5984 15.725C25.4246 22.6375 16.1409 27.7938 15.7471 28.01C15.6071 28.0875 15.4521 28.1263 15.2971 28.1263C15.1421 28.1263 14.9884 28.0888 14.8484 28.0125C14.4571 27.7988 5.24089 22.7188 2.99464 15.7263C2.99339 15.7263 2.99339 15.725 2.99339 15.725C1.58339 11.3225 3.15339 5.79 8.22214 4.15625C10.6021 3.38625 13.1959 3.725 15.2934 5.04875ZM8.79714 5.94125C4.69589 7.26375 3.66589 11.675 4.77964 15.1538C6.53214 20.6063 13.4559 25.015 15.2959 26.1063C17.1421 25.0038 24.1159 20.5463 25.8121 15.1588C26.9259 11.6763 25.8921 7.265 21.7846 5.94125C19.7946 5.3025 17.4734 5.69125 15.8709 6.93125C15.5359 7.18875 15.0709 7.19375 14.7334 6.93875C13.0359 5.6625 10.8184 5.28875 8.79714 5.94125ZM20.5846 8.42363C22.2884 8.97488 23.4821 10.4836 23.6284 12.2674C23.6696 12.7836 23.2859 13.2361 22.7696 13.2774C22.7434 13.2799 22.7184 13.2811 22.6921 13.2811C22.2084 13.2811 21.7984 12.9099 21.7584 12.4199C21.6759 11.3924 20.9884 10.5249 20.0096 10.2086C19.5159 10.0486 19.2459 9.51988 19.4046 9.02863C19.5659 8.53613 20.0896 8.26863 20.5846 8.42363Z" fill="white"/>
</svg>
