<svg width="255" height="37" viewBox="0 0 255 37" fill="none" xmlns="http://www.w3.org/2000/svg">
<path d="M20.6529 11.5568C20.5393 10.3068 20.0336 9.33523 19.1359 8.64205C18.2495 7.9375 16.9825 7.58523 15.3348 7.58523C14.2438 7.58523 13.3348 7.72727 12.6075 8.01136C11.8802 8.29545 11.3348 8.6875 10.9711 9.1875C10.6075 9.67614 10.42 10.2386 10.4086 10.875C10.3859 11.3977 10.4882 11.858 10.7154 12.2557C10.9541 12.6534 11.295 13.0057 11.7382 13.3125C12.1927 13.608 12.7382 13.8693 13.3745 14.0966C14.0109 14.3239 14.7268 14.5227 15.5223 14.6932L18.5223 15.375C20.2495 15.75 21.7723 16.25 23.0904 16.875C24.42 17.5 25.5336 18.2443 26.4313 19.108C27.3404 19.9716 28.0279 20.9659 28.4938 22.0909C28.9598 23.2159 29.1984 24.4773 29.2098 25.875C29.1984 28.0795 28.6416 29.9716 27.5393 31.5511C26.437 33.1307 24.8518 34.3409 22.7836 35.1818C20.7268 36.0227 18.2438 36.4432 15.3348 36.4432C12.4143 36.4432 9.86884 36.0057 7.69839 35.1307C5.52793 34.2557 3.84043 32.9261 2.63589 31.142C1.43134 29.358 0.812026 27.1023 0.777935 24.375H8.85748C8.92566 25.5 9.2268 26.4375 9.76089 27.1875C10.295 27.9375 11.0279 28.5057 11.9598 28.892C12.9029 29.2784 13.9938 29.4716 15.2325 29.4716C16.3688 29.4716 17.3348 29.3182 18.1302 29.0114C18.937 28.7045 19.5563 28.2784 19.9882 27.733C20.42 27.1875 20.6416 26.5625 20.6529 25.858C20.6416 25.1989 20.437 24.6364 20.0393 24.1705C19.6416 23.6932 19.0279 23.2841 18.1984 22.9432C17.3802 22.5909 16.3348 22.267 15.062 21.9716L11.4143 21.1193C8.39157 20.4261 6.01089 19.3068 4.27225 17.7614C2.53362 16.2045 1.66998 14.1023 1.68134 11.4545C1.66998 9.29545 2.24953 7.40341 3.41998 5.77841C4.59043 4.15341 6.20975 2.88636 8.27794 1.97727C10.3461 1.06818 12.7041 0.613635 15.3518 0.613635C18.0563 0.613635 20.4029 1.07386 22.3916 1.99432C24.3916 2.90341 25.9427 4.18182 27.045 5.82955C28.1473 7.47727 28.7098 9.38636 28.7325 11.5568H20.6529ZM27.7111 36V1.09091H36.1486V15.1023H49.9043V1.09091H58.3248V36H49.9043V21.9716H36.1486V36H27.7111ZM90.8062 18.5455C90.8062 22.3864 90.0676 25.642 88.5903 28.3125C87.113 30.983 85.113 33.0114 82.5903 34.3977C80.079 35.7841 77.2608 36.4773 74.1358 36.4773C70.9994 36.4773 68.1755 35.7784 65.6642 34.3807C63.1528 32.983 61.1585 30.9545 59.6812 28.2955C58.2153 25.625 57.4824 22.375 57.4824 18.5455C57.4824 14.7045 58.2153 11.4489 59.6812 8.77841C61.1585 6.10795 63.1528 4.07955 65.6642 2.69318C68.1755 1.30682 70.9994 0.613635 74.1358 0.613635C77.2608 0.613635 80.079 1.30682 82.5903 2.69318C85.113 4.07955 87.113 6.10795 88.5903 8.77841C90.0676 11.4489 90.8062 14.7045 90.8062 18.5455ZM82.1812 18.5455C82.1812 16.2727 81.8574 14.3523 81.2096 12.7841C80.5733 11.2159 79.6528 10.0284 78.4483 9.22159C77.2551 8.41477 75.8176 8.01136 74.1358 8.01136C72.4653 8.01136 71.0278 8.41477 69.8233 9.22159C68.6187 10.0284 67.6926 11.2159 67.0449 12.7841C66.4085 14.3523 66.0903 16.2727 66.0903 18.5455C66.0903 20.8182 66.4085 22.7386 67.0449 24.3068C67.6926 25.875 68.6187 27.0625 69.8233 27.8693C71.0278 28.6761 72.4653 29.0795 74.1358 29.0795C75.8176 29.0795 77.2551 28.6761 78.4483 27.8693C79.6528 27.0625 80.5733 25.875 81.2096 24.3068C81.8574 22.7386 82.1812 20.8182 82.1812 18.5455ZM89.9724 36V1.09091H104.393C107.006 1.09091 109.262 1.60227 111.16 2.625C113.069 3.63636 114.541 5.05113 115.575 6.86932C116.609 8.67614 117.126 10.7784 117.126 13.1761C117.126 15.5852 116.597 17.6932 115.541 19.5C114.495 21.2955 113.001 22.6875 111.058 23.6761C109.114 24.6648 106.808 25.1591 104.137 25.1591H95.2394V18.5114H102.569C103.842 18.5114 104.904 18.2898 105.756 17.8466C106.62 17.4034 107.274 16.7841 107.717 15.9886C108.16 15.1818 108.381 14.2443 108.381 13.1761C108.381 12.0966 108.16 11.1648 107.717 10.3807C107.274 9.58523 106.62 8.97159 105.756 8.53977C104.893 8.10795 103.83 7.89205 102.569 7.89205H98.4099V36H89.9724ZM134.394 11.5568C134.281 10.3068 133.775 9.33523 132.877 8.64205C131.991 7.9375 130.724 7.58523 129.076 7.58523C127.985 7.58523 127.076 7.72727 126.349 8.01136C125.621 8.29545 125.076 8.6875 124.712 9.1875C124.349 9.67614 124.161 10.2386 124.15 10.875C124.127 11.3977 124.229 11.858 124.457 12.2557C124.695 12.6534 125.036 13.0057 125.479 13.3125C125.934 13.608 126.479 13.8693 127.116 14.0966C127.752 14.3239 128.468 14.5227 129.264 14.6932L132.264 15.375C133.991 15.75 135.514 16.25 136.832 16.875C138.161 17.5 139.275 18.2443 140.173 19.108C141.082 19.9716 141.769 20.9659 142.235 22.0909C142.701 23.2159 142.94 24.4773 142.951 25.875C142.94 28.0795 142.383 29.9716 141.281 31.5511C140.178 33.1307 138.593 34.3409 136.525 35.1818C134.468 36.0227 131.985 36.4432 129.076 36.4432C126.156 36.4432 123.61 36.0057 121.44 35.1307C119.269 34.2557 117.582 32.9261 116.377 31.142C115.173 29.358 114.553 27.1023 114.519 24.375H122.599C122.667 25.5 122.968 26.4375 123.502 27.1875C124.036 27.9375 124.769 28.5057 125.701 28.892C126.644 29.2784 127.735 29.4716 128.974 29.4716C130.11 29.4716 131.076 29.3182 131.871 29.0114C132.678 28.7045 133.298 28.2784 133.729 27.733C134.161 27.1875 134.383 26.5625 134.394 25.858C134.383 25.1989 134.178 24.6364 133.781 24.1705C133.383 23.6932 132.769 23.2841 131.94 22.9432C131.121 22.5909 130.076 22.267 128.803 21.9716L125.156 21.1193C122.133 20.4261 119.752 19.3068 118.014 17.7614C116.275 16.2045 115.411 14.1023 115.423 11.4545C115.411 9.29545 115.991 7.40341 117.161 5.77841C118.332 4.15341 119.951 2.88636 122.019 1.97727C124.087 1.06818 126.445 0.613635 129.093 0.613635C131.798 0.613635 134.144 1.07386 136.133 1.99432C138.133 2.90341 139.684 4.18182 140.786 5.82955C141.889 7.47727 142.451 9.38636 142.474 11.5568H134.394ZM173.14 13.7386H164.617C164.504 12.8636 164.271 12.0739 163.918 11.3693C163.566 10.6648 163.1 10.0625 162.521 9.5625C161.941 9.0625 161.254 8.68182 160.458 8.42045C159.674 8.14773 158.805 8.01136 157.85 8.01136C156.157 8.01136 154.697 8.42614 153.469 9.25568C152.253 10.0852 151.316 11.2841 150.657 12.8523C150.009 14.4205 149.685 16.3182 149.685 18.5455C149.685 20.8636 150.015 22.8068 150.674 24.375C151.344 25.9318 152.282 27.108 153.486 27.9034C154.702 28.6875 156.14 29.0795 157.799 29.0795C158.731 29.0795 159.577 28.9602 160.339 28.7216C161.111 28.483 161.788 28.1364 162.367 27.6818C162.958 27.2159 163.441 26.6534 163.816 25.9943C164.202 25.3239 164.469 24.5682 164.617 23.7273L173.14 23.7784C172.992 25.3239 172.543 26.8466 171.793 28.3466C171.055 29.8466 170.038 31.2159 168.742 32.4545C167.447 33.6818 165.867 34.6591 164.004 35.3864C162.151 36.1136 160.026 36.4773 157.629 36.4773C154.469 36.4773 151.64 35.7841 149.14 34.3977C146.651 33 144.685 30.9659 143.242 28.2955C141.799 25.625 141.077 22.375 141.077 18.5455C141.077 14.7045 141.81 11.4489 143.276 8.77841C144.742 6.10795 146.725 4.07955 149.225 2.69318C151.725 1.30682 154.526 0.613635 157.629 0.613635C159.742 0.613635 161.697 0.90909 163.492 1.5C165.288 2.07954 166.867 2.93182 168.231 4.05682C169.594 5.17045 170.702 6.53977 171.555 8.16477C172.407 9.78977 172.935 11.6477 173.14 13.7386ZM205.157 18.5455C205.157 22.3864 204.418 25.642 202.941 28.3125C201.464 30.983 199.464 33.0114 196.941 34.3977C194.43 35.7841 191.611 36.4773 188.486 36.4773C185.35 36.4773 182.526 35.7784 180.015 34.3807C177.503 32.983 175.509 30.9545 174.032 28.2955C172.566 25.625 171.833 22.375 171.833 18.5455C171.833 14.7045 172.566 11.4489 174.032 8.77841C175.509 6.10795 177.503 4.07955 180.015 2.69318C182.526 1.30682 185.35 0.613635 188.486 0.613635C191.611 0.613635 194.43 1.30682 196.941 2.69318C199.464 4.07955 201.464 6.10795 202.941 8.77841C204.418 11.4489 205.157 14.7045 205.157 18.5455ZM196.532 18.5455C196.532 16.2727 196.208 14.3523 195.56 12.7841C194.924 11.2159 194.003 10.0284 192.799 9.22159C191.606 8.41477 190.168 8.01136 188.486 8.01136C186.816 8.01136 185.378 8.41477 184.174 9.22159C182.969 10.0284 182.043 11.2159 181.395 12.7841C180.759 14.3523 180.441 16.2727 180.441 18.5455C180.441 20.8182 180.759 22.7386 181.395 24.3068C182.043 25.875 182.969 27.0625 184.174 27.8693C185.378 28.6761 186.816 29.0795 188.486 29.0795C190.168 29.0795 191.606 28.6761 192.799 27.8693C194.003 27.0625 194.924 25.875 195.56 24.3068C196.208 22.7386 196.532 20.8182 196.532 18.5455ZM204.323 36V1.09091H218.743C221.357 1.09091 223.613 1.60227 225.51 2.625C227.42 3.63636 228.891 5.05113 229.925 6.86932C230.959 8.67614 231.476 10.7784 231.476 13.1761C231.476 15.5852 230.948 17.6932 229.891 19.5C228.846 21.2955 227.351 22.6875 225.408 23.6761C223.465 24.6648 221.158 25.1591 218.488 25.1591H209.59V18.5114H216.92C218.192 18.5114 219.255 18.2898 220.107 17.8466C220.971 17.4034 221.624 16.7841 222.067 15.9886C222.51 15.1818 222.732 14.2443 222.732 13.1761C222.732 12.0966 222.51 11.1648 222.067 10.3807C221.624 9.58523 220.971 8.97159 220.107 8.53977C219.243 8.10795 218.181 7.89205 216.92 7.89205H212.76V36H204.323ZM229.875 36V1.09091H254.216V7.94318H238.313V15.1023H252.972V21.9716H238.313V29.1477H254.216V36H229.875Z" fill="white"/>
</svg>
